<?xml version="1.0" encoding="utf-8"?>
<!-- Generator: Adobe Illustrator 24.0.1, SVG Export Plug-In . SVG Version: 6.00 Build 0)  -->
<svg version="1.1" id="Слой_1" xmlns="http://www.w3.org/2000/svg" xmlns:xlink="http://www.w3.org/1999/xlink" x="0px" y="0px"
	 viewBox="0 0 16 16" style="enable-background:new 0 0 16 16;" xml:space="preserve">
<style type="text/css">
	.st0{display:none;}
	.st1{display:inline;}
	.st2{fill:#9D9D9C;}
	.st3{fill:none;stroke:#777777;stroke-width:15;stroke-miterlimit:10;}
	.st4{fill:none;stroke:#F6F6F6;stroke-width:5;stroke-miterlimit:10;}
	.st5{fill:#31B2C4;}
	.st6{fill:none;stroke:#31B2C4;stroke-width:0.5;stroke-miterlimit:10;}
	.st7{display:none;fill:#969696;}
	.st8{display:none;fill:none;stroke:#575756;stroke-width:3;stroke-miterlimit:10;}
</style>
<g id="Шар_6" class="st0">
	<g class="st1">
		<polygon class="st2" points="280.2,310.7 151.2,188.3 7.5,310.7 -136.7,188.3 -264.2,310.7 -264.2,-319.2 280.2,-319.2 		"/>
		<polygon class="st3" points="280.2,310.7 151.2,188.3 7.5,310.7 -136.7,188.3 -264.2,310.7 -264.2,-319.2 280.2,-319.2 		"/>
		<polygon class="st4" points="280.2,310.7 151.2,188.3 7.5,310.7 -136.7,188.3 -264.2,310.7 -264.2,-319.2 280.2,-319.2 		"/>
	</g>
</g>
<g id="Ua" class="st0">
	
		<image style="display:inline;overflow:visible;opacity:0.75;enable-background:new    ;" width="2013" height="575" xlink:href="F5682644D77813EA.png"  transform="matrix(0.2393 0 0 0.2393 -231.505 44.3974)">
	</image>
	<g class="st1">
		<g>
			<text transform="matrix(1 0 0 1 -216.3246 147.5369)" style="fill:#DADADA; font-family:'BLAGOVEST'; font-size:100px;">Вітаград</text>
		</g>
	</g>
</g>
<g id="Шар_5">
	<g>
		<path class="st5" d="M15.9,9.7c0.1,0.2-0.1,0.4-0.3,0.4c-0.3,0.1-1.3-0.1-1.8-0.1s-0.3,0.1-0.7,0s-0.8-0.3-1.2-0.4
			c-0.5-0.1-0.5,0-0.8,0s-0.9-0.5-1-0.3c-0.1,0.3,0.3,1.1,0.3,1.1l-0.2,0.2c0,0-0.1-0.3-0.3-0.8C9.7,9.5,9.6,9.2,9.4,9
			C9.2,8.8,9.2,8.5,9.2,8.5s0.2,0.2,1.3,0.6s1.1,0.3,1.1,0.3s-0.3-0.3-0.3-0.5c-0.1-0.2,0-0.6,0-0.6s0.2,1,0.8,1.2s1.3,0.3,1.3,0.3
			S13.1,9.7,13,9.5s-0.2-0.6-0.2-0.6s0.3,1,1.2,1c0.6,0.1,1.1,0.2,1.2-0.2S13.6,8.8,13,8.3c-0.5-0.3-1-0.9-1-0.9V7
			c0,0,0.8,0.7,1.3,1.1C13.7,8.5,15.8,9.6,15.9,9.7z"/>
		<path class="st5" d="M0.1,10.1c-0.1,0.2,0.1,0.4,0.3,0.4c0.3,0.1,1.3-0.1,1.8-0.1s0.3,0.1,0.7,0s0.8-0.3,1.2-0.4
			c0.5-0.1,0.5,0,0.8,0s0.9-0.5,1-0.3c0.1,0.3-0.4,1-0.4,1H6c0,0,0,0,0.2-0.5c0.1-0.4,0.2-0.7,0.4-0.9c0.3-0.2,0.3-0.5,0.3-0.5
			S6.6,9.1,5.5,9.5c-1,0.4-1.1,0.3-1.1,0.3s0.3-0.3,0.3-0.5c0.1-0.2,0-0.6,0-0.6S4.5,9.7,4,9.9s-1.3,0.3-1.3,0.3S2.9,10,3,9.8
			s0.2-0.6,0.2-0.6s-0.3,1-1.2,1c-0.6,0.1-1.1,0.2-1.2-0.2c0-0.4,1.6-0.9,2.2-1.4c0.5-0.3,1.7-1.3,1.7-1.3V7.1c0,0-0.9,0.6-1.9,1.2
			C2.4,8.7,0.2,9.9,0.1,10.1z"/>
		<ellipse class="st6" cx="8.3" cy="2.5" rx="1.2" ry="0.4"/>
		<path class="st5" d="M6.3,5.8c0,0,0.4-0.1,0.5-0.2c0.2,0,0.4-0.1,0.4-0.1l0.2,0.2c0,0-0.2,0.2-0.3,0.2C6.9,5.9,6.6,6,6.6,6
			L6.3,5.8z"/>
		<path class="st5" d="M10,5.8c0,0-0.5-0.2-0.6-0.2S9.1,5.4,9.1,5.4L8.8,5.5c0,0,0.3,0.2,0.4,0.2c0.1,0.1,0.4,0.1,0.4,0.1L10,5.8z"
			/>
		<path class="st5" d="M9.1,12.4c0,0,0.1-0.6,0.1-0.9c0-0.6-0.2-1.2-0.2-1.2s0.1,0.7,0,1.5C8.7,13.1,8.7,13,8.7,13h0.1
			C8.8,13,8.8,12.9,9.1,12.4z"/>
		<path class="st5" d="M6.7,12.8c0,0-0.2-0.4-0.2-0.7c-0.1-0.5,0-1,0-0.9c0,0,0,0.6,0.2,1.1c0.4,1,0.4,0.9,0.4,0.9H7
			C7.1,13.2,7,13.1,6.7,12.8z"/>
	</g>
</g>
<g id="Шар_1">
	<g>
		<path class="st7" d="M9.4,10.4c0-0.3,0.1-1.5,0.1-1.6c0-0.2,0.1,0.5,0.2,0.7c0,0.1,0.1,0.1,0.1,0.2C9.9,9.8,9.9,9.8,10,9.6
			c0,0,0.1-0.1,0.3-0.2c0.2,0-0.3,0.2-0.3,0.3c0,0.2,0.1,0.6,0.1,0.8c0,0.1-0.3-0.6-0.3-0.7c0-0.1-0.1,0-0.1,0S9.6,10,9.6,10.1
			C9.5,10.2,9.4,10.4,9.4,10.4z"/>
		<path class="st7" d="M5,9.9c-0.1,0.1-0.3,0.3-0.4,0.3s-0.1-0.3,0-0.3s0.1,0,0.3-0.1C5,9.8,5.7,8.6,6,8.6c0.2-0.1,0.4,0,0.4,0.8
			c0,0.4-0.1,0.9-0.1,1S6,10.8,6,10.7c0.2-1,0.4-1.5,0.3-1.8c0,0-0.3-0.1-0.5-0.1C5.4,9,5.7,8.9,5,9.9z"/>
		<path class="st7" d="M12.2,5.4c0.2,0-0.2,0.1-0.2,0.1l-1.1-0.3L11,5.1c0,0-0.2,0.1,0.5,0.1c0.1,0,0.6-1.4,0.6-1.4l-0.3-0.1
			c0,0-0.7-0.1,0-0.2c0.7,0.2,0.1,0,0.5,0.2L12.8,4c0,0-0.6-0.1-0.7-0.3c0-0.1-0.5,1.3-0.3,1.6C11.9,5.4,11.9,5.3,12.2,5.4z"/>
		<path class="st5" d="M8,5.3v0.4c0,0-1,0.1-1-1.1c0-0.5,0.3-0.9,0.3-0.9s0.3-0.4,1-0.4c0.5,0,1,0.2,1.1,0.6S9.3,5,9.1,5.2
			C8.6,5.7,8,5.7,8,5.7V5.3c0,0,0.4,0,0.8-0.3c0.4-0.3,0.4-1,0.1-1.1C8.6,3.7,8.2,3.8,8,3.9C7.9,4.1,7.6,4.4,7.5,4.8
			C7.4,5.4,8,5.3,8,5.3"/>
		<g>
			<path class="st5" d="M6.5,13.8c-0.3-0.1-1.3-1-1.4-1.3s0.1-1.3,0.6-1.9c0.1-0.1-0.3,1.1,0,1.7C6,13,7.3,13.1,7.6,13
				c0.2-0.1-0.2-2-0.2-2.8S7.9,8,7.8,7.7s-0.9-0.8-1.6-1C5.5,6.4,4.9,7.6,4.7,7.4C4.6,7.1,5.3,5.8,6.1,5.9c0.7,0.1,1.6,1,1.9,1
				c0.2,0,0.4-0.9,1.9-1c1.3-0.1,2.1,1.1,2,1.2c-0.1,0.2-1-0.7-2-0.7C8.8,6.4,8.5,7.2,8.3,8c-0.4,1.9,0,2,0,2.6c0,1-0.3,1.5-0.1,1.9
				s0.2,0.4,0.9,0.4c0.9,0,1.6-0.2,1.9-0.8c0.1-0.2-0.7-0.9-0.8-1.3c-0.1-0.4,1.3,1,1.2,1.3c-0.3,0.9-1.6,1.5-2,1.7
				C9,14,7.1,13.9,6.5,13.8z"/>
		</g>
		<line class="st8" x1="8.1" y1="5.4" x2="8.1" y2="5.7"/>
	</g>
</g>
<g id="En" class="st0">
	
		<text transform="matrix(1 0 0 1 -199.8248 168.538)" style="display:inline;fill:#9D9D9C; font-family:'BulgariaModernaPro'; font-size:100px;">VITAGRAD</text>
</g>
<g id="Ru" class="st0">
	
		<text transform="matrix(1 0 0 1 -199.8248 168.538)" style="display:inline;fill:#9D9D9C; font-family:'Pelagy'; font-size:100px;">Витаград</text>
</g>
</svg>
